<svg data-v-0dd9719b="" version="1.0" xmlns="http://www.w3.org/2000/svg" xmlns:xlink="http://www.w3.org/1999/xlink" width="100%" height="100%" viewBox="0 0 340.000000 250.000000" preserveAspectRatio="xMidYMid meet" color-interpolation-filters="sRGB" style="margin: auto;"> <rect data-v-0dd9719b="" x="0" y="0" width="100%" height="100%" fill="#fff" fill-opacity="1" class="background"></rect> <rect data-v-0dd9719b="" x="0" y="0" width="100%" height="100%" fill="url(#watermark)" fill-opacity="1" class="watermarklayer"></rect> <g data-v-0dd9719b="" fill="#009fe8" class="icon-text-wrapper icon-svg-group iconsvg" transform="translate(71.69499969482422,95.14450073242188)"><g class="iconsvg-imagesvg" transform="translate(0,0)"><g><rect fill="#009fe8" fill-opacity="0" stroke-width="2" x="0" y="0" width="60" height="59.7109987659727" class="image-rect"></rect> <svg x="0" y="0" width="60" height="59.7109987659727" filtersec="colorsb447399660" class="image-svg-svg primary" style="overflow: visible;"><svg version="1.1" id="图层_1" xmlns="http://www.w3.org/2000/svg" xmlns:xlink="http://www.w3.org/1999/xlink" x="0px" y="0px" viewBox="1.75 2.190000057220459 89.25 88.81999969482422" enable-background="new 0 0 92 92" xml:space="preserve">
<path fill="#009FE8" d="M30.76,89.15c2.08,0.76,4.23,1.37,6.45,1.83l8.99-15.58l9.02,15.61c2.22-0.44,4.37-1.05,6.46-1.8
	l-15.48-26.8L30.76,89.15z M91,53.88H60.3l15.59,26.99c1.7-1.47,3.28-3.06,4.75-4.76l-9.09-15.73h17.9
	C90.13,58.27,90.64,56.1,91,53.88z M1.75,54.71c0.4,2.23,0.97,4.4,1.68,6.5h17.62l-8.8,15.24c1.48,1.68,3.07,3.26,4.79,4.71
	L32.3,54.71H1.75z M90.92,38.9c-0.38-2.22-0.92-4.39-1.61-6.5H70.93l9.19-15.92c-1.49-1.67-3.08-3.23-4.81-4.66L59.68,38.9H90.92z
	 M61.67,3.99c-2.09-0.75-4.24-1.36-6.46-1.8L46.19,17.8L37.21,2.22c-2.21,0.45-4.37,1.06-6.45,1.82l15.43,26.75L61.67,3.99z
	 M17.62,11.55c-1.73,1.42-3.35,2.95-4.84,4.6l8.9,15.42H3.57c-0.74,2.1-1.33,4.27-1.75,6.5h31.1L17.62,11.55z"></path>
</svg></svg> <!----></g></g> <g transform="translate(67,6.000497817993164)"><g data-gra="path-name" fill-rule="" class="tp-name iconsvg-namesvg"><g transform="scale(1)"><g><path d="M14.63-18.39L14.63 0 5.2 0 5.2-46.41 29.64-46.41 29.64-38.55 14.63-38.55 14.63-26.32 28.67-26.32 28.67-18.39 14.63-18.39ZM47.13-18.39L47.13 0 37.7 0 37.7-46.41 62.14-46.41 62.14-38.55 47.13-38.55 47.13-26.32 61.17-26.32 61.17-18.39 47.13-18.39ZM86.78-38.41L86.78 0 77.28 0 77.28-38.41 66.17-38.41 66.17-46.41 97.89-46.41 97.89-38.41 86.78-38.41ZM122.59-39.07L122.59-39.07Q117.52-39.07 114.89-34.68 112.25-30.29 112.25-23.07L112.25-23.07Q112.25-15.54 114.82-11.44 117.39-7.35 122.78-7.35L122.78-7.35Q125.32-7.35 127.86-8.03 130.39-8.71 133.19-9.81L133.19-9.81 133.19-1.69Q130.52-0.52 127.79 0.07 125.06 0.65 121.75 0.65L121.75 0.65Q115.25 0.65 110.99-2.24 106.73-5.13 104.62-10.46 102.5-15.79 102.5-23.14L102.5-23.14Q102.5-30.1 104.78-35.52 107.06-40.95 111.51-44.01 115.96-47.06 122.4-47.06L122.4-47.06Q125.58-47.06 128.73-46.25 131.88-45.44 134.81-43.94L134.81-43.94 131.82-36.2Q129.55-37.38 127.24-38.22 124.93-39.07 122.59-39.07Z" transform="translate(-5.199999809265137, 47.060001373291016)"></path></g> <!----> <!----> <!----> <!----> <!----> <!----> <!----></g></g> <!----></g></g><defs v-gra="od"></defs></svg>